<svg xmlns="http://www.w3.org/2000/svg" width="500" height="300" viewBox="0 0 500 300"><rect width="100%" height="100%" fill="#DDDDDD"/><path fill="#999999" d="m114.45 133.53-1.68 9.94q1.58-.33 3.04-.48 1.45-.15 2.8-.15 3.76 0 6.63 1.12t4.82 3.1q1.95 1.98 2.94 4.64.99 2.66.99 5.73 0 3.79-1.34 6.93-1.33 3.13-3.71 5.36-2.38 2.23-5.63 3.45-3.25 1.22-7.08 1.22-2.24 0-4.25-.46-2.02-.47-3.78-1.24-1.77-.78-3.27-1.78-1.5-1.01-2.69-2.13l2.51-3.47q.79-1.12 2.08-1.12.82 0 1.68.53t1.97 1.15q1.1.63 2.6 1.16 1.5.53 3.62.53 2.24 0 3.96-.73 1.71-.73 2.85-2.03 1.14-1.3 1.72-3.1.57-1.8.57-3.91 0-3.89-2.26-6.09-2.26-2.19-6.68-2.19-3.4 0-6.96 1.25l-5.08-1.45 3.96-23.17h23.56v3.47q0 1.75-1.09 2.84-1.09 1.08-3.7 1.08h-13.1ZM174.28 150q0 6.24-1.33 10.84-1.34 4.6-3.7 7.61-2.36 3-5.58 4.47-3.22 1.47-6.94 1.47-3.73 0-6.92-1.47-3.18-1.47-5.53-4.47-2.34-3.01-3.66-7.61-1.32-4.6-1.32-10.84 0-6.27 1.32-10.86 1.32-4.58 3.66-7.59 2.35-3 5.53-4.47 3.19-1.47 6.92-1.47 3.72 0 6.94 1.47t5.58 4.47q2.36 3.01 3.7 7.59 1.33 4.59 1.33 10.86Zm-8.41 0q0-5.18-.76-8.58-.76-3.4-2.03-5.41-1.27-2.01-2.92-2.82t-3.43-.81q-1.75 0-3.39.81-1.63.81-2.88 2.82-1.26 2.01-2 5.41-.74 3.4-.74 8.58t.74 8.58q.74 3.4 2 5.41 1.25 2.02 2.88 2.82 1.64.81 3.39.81 1.78 0 3.43-.81 1.65-.8 2.92-2.82 1.27-2.01 2.03-5.41.76-3.4.76-8.58Zm46.69 0q0 6.24-1.33 10.84-1.34 4.6-3.7 7.61-2.36 3-5.58 4.47-3.22 1.47-6.94 1.47-3.73 0-6.92-1.47-3.18-1.47-5.53-4.47-2.34-3.01-3.66-7.61-1.32-4.6-1.32-10.84 0-6.27 1.32-10.86 1.32-4.58 3.66-7.59 2.35-3 5.53-4.47 3.19-1.47 6.92-1.47 3.72 0 6.94 1.47t5.58 4.47q2.36 3.01 3.7 7.59 1.33 4.59 1.33 10.86Zm-8.41 0q0-5.18-.76-8.58-.76-3.4-2.03-5.41-1.27-2.01-2.92-2.82t-3.43-.81q-1.75 0-3.39.81-1.63.81-2.88 2.82-1.26 2.01-2 5.41-.74 3.4-.74 8.58t.74 8.58q.74 3.4 2 5.41 1.25 2.02 2.88 2.82 1.64.81 3.39.81 1.78 0 3.43-.81 1.65-.8 2.92-2.82 1.27-2.01 2.03-5.41.76-3.4.76-8.58Zm60.82 12.94-4.33 4.25-11.18-11.18-11.29 11.25-4.32-4.26 11.28-11.32-10.76-10.75 4.29-4.29 10.76 10.75 10.69-10.69 4.36 4.29-10.72 10.73 11.22 11.22Zm27.45-22.74-4.29-.76q.5-3.43 1.92-6.02 1.41-2.59 3.54-4.32 2.13-1.74 4.89-2.61 2.75-.88 5.92-.88 3.3 0 5.96.94 2.65.94 4.53 2.61 1.89 1.67 2.89 3.91 1.01 2.25 1.01 4.85 0 2.28-.51 4.01t-1.47 3.02q-.96 1.29-2.38 2.18-1.42.89-3.2 1.48 4.29 1.36 6.4 4.13 2.12 2.77 2.12 6.96 0 3.57-1.32 6.31-1.32 2.73-3.57 4.6-2.24 1.86-5.2 2.82-2.95.96-6.25.96-3.6 0-6.27-.83-2.67-.82-4.65-2.44-1.98-1.62-3.37-3.96-1.38-2.34-2.37-5.41l3.59-1.49q1.42-.59 2.66-.31 1.24.28 1.8 1.34.59 1.15 1.3 2.27.71 1.13 1.7 2 .99.87 2.33 1.42 1.33.54 3.18.54 2.08 0 3.63-.67 1.55-.68 2.59-1.77 1.04-1.09 1.55-2.42.51-1.34.51-2.69 0-1.72-.36-3.12-.36-1.4-1.52-2.39-1.15-.99-3.31-1.56-2.16-.56-5.79-.56v-5.8q3-.04 4.98-.57 1.98-.52 3.15-1.46t1.63-2.26q.47-1.32.47-2.91 0-3.36-1.89-5.11-1.88-1.75-5.01-1.75-1.45 0-2.67.41-1.23.41-2.2 1.16-.97.74-1.63 1.73-.66.99-.99 2.18-.56 1.51-1.47 2.01-.91.49-2.56.23Zm67.06 9.8q0 6.24-1.34 10.84t-3.69 7.61q-2.36 3-5.58 4.47-3.22 1.47-6.95 1.47t-6.91-1.47q-3.19-1.47-5.53-4.47-2.34-3.01-3.66-7.61-1.32-4.6-1.32-10.84 0-6.27 1.32-10.86 1.32-4.58 3.66-7.59 2.34-3 5.53-4.47 3.18-1.47 6.91-1.47t6.95 1.47q3.22 1.47 5.58 4.47 2.35 3.01 3.69 7.59 1.34 4.59 1.34 10.86Zm-8.42 0q0-5.18-.76-8.58-.76-3.4-2.03-5.41-1.27-2.01-2.92-2.82t-3.43-.81q-1.75 0-3.38.81t-2.89 2.82q-1.25 2.01-1.99 5.41-.75 3.4-.75 8.58t.75 8.58q.74 3.4 1.99 5.41 1.26 2.02 2.89 2.82 1.63.81 3.38.81 1.78 0 3.43-.81 1.65-.8 2.92-2.82 1.27-2.01 2.03-5.41.76-3.4.76-8.58Zm46.7 0q0 6.24-1.34 10.84t-3.69 7.61q-2.36 3-5.58 4.47-3.22 1.47-6.95 1.47t-6.91-1.47q-3.19-1.47-5.53-4.47-2.34-3.01-3.66-7.61-1.32-4.6-1.32-10.84 0-6.27 1.32-10.86 1.32-4.58 3.66-7.59 2.34-3 5.53-4.47 3.18-1.47 6.91-1.47t6.95 1.47q3.22 1.47 5.58 4.47 2.35 3.01 3.69 7.59 1.34 4.59 1.34 10.86Zm-8.42 0q0-5.18-.76-8.58-.76-3.4-2.03-5.41-1.27-2.01-2.92-2.82t-3.43-.81q-1.75 0-3.38.81t-2.89 2.82q-1.25 2.01-1.99 5.41-.75 3.4-.75 8.58t.75 8.58q.74 3.4 1.99 5.41 1.26 2.02 2.89 2.82 1.63.81 3.38.81 1.78 0 3.43-.81 1.65-.8 2.92-2.82 1.27-2.01 2.03-5.41.76-3.4.76-8.58Z"/></svg>