<svg xmlns="http://www.w3.org/2000/svg" width="531" height="532" viewBox="0 0 531 532" version="1.1"><path d="M 236 2.069 C 174.805 9.602, 120.576 35.671, 77.955 78.045 C 44.707 111.100, 20.111 154.127, 8.447 199.638 C 2.531 222.720, 0.659 238.297, 0.593 265 C 0.531 289.672, 1.377 299.067, 5.496 319.500 C 10.316 343.410, 16.428 361.072, 27.989 384.500 C 75.046 479.858, 175.854 538.077, 281.743 531.048 C 378.239 524.642, 460.298 470.317, 503.307 384.367 C 517.181 356.640, 525.602 328.030, 529.700 294.698 C 531.704 278.394, 532.532 250.132, 531.049 248.649 C 530.472 248.072, 529.998 245.778, 529.995 243.550 C 529.987 236.591, 526.297 214.038, 523.087 201.334 C 516.079 173.599, 502.493 142.563, 487.482 120 C 450.772 64.820, 396.758 26.035, 333.555 9.474 C 309.615 3.201, 298.461 1.805, 269.500 1.458 C 255.200 1.286, 240.125 1.561, 236 2.069 M 233.500 81.929 C 228.382 83.164, 226.163 84.866, 223.281 89.768 C 220.744 94.085, 220.469 95.536, 220.143 106.316 C 219.630 123.268, 221.186 136.129, 229.562 184.144 C 238.235 233.871, 239.024 244.263, 234.399 247.901 C 230.909 250.646, 225.221 251.682, 223.554 249.878 C 222.854 249.120, 219.941 239.605, 217.082 228.733 C 214.222 217.860, 207.898 197.610, 203.029 183.733 C 198.160 169.855, 192.736 153.618, 190.975 147.652 C 187.115 134.569, 180.109 122.029, 173.850 117 C 169.973 113.884, 168.970 113.555, 163.710 113.676 C 156.214 113.849, 152.747 115.334, 149.288 119.855 C 146.773 123.143, 146.500 124.284, 146.500 131.500 C 146.500 141.391, 149.137 155.740, 153.048 167.136 C 154.678 171.885, 159.183 188.760, 163.059 204.636 C 166.935 220.511, 171.691 238.593, 173.629 244.817 C 176.409 253.745, 177.009 257.018, 176.471 260.317 C 175.185 268.205, 170.410 270.622, 162.070 267.608 C 159.092 266.532, 158.191 265.325, 155.222 258.434 C 153.342 254.071, 148.485 241.358, 144.429 230.185 C 135.750 206.278, 132.881 200.612, 127.731 197.203 C 122.353 193.644, 114.664 192.548, 109.261 194.570 C 102.698 197.027, 101 199.905, 101 208.570 C 101 212.585, 101.488 217.137, 102.085 218.685 C 102.682 220.233, 108.504 240.850, 115.022 264.500 C 132.303 327.198, 145.235 361.912, 159.613 384.204 C 172.445 404.098, 183.979 417.459, 196 426.352 C 224.330 447.312, 248.167 454.345, 279.569 451.011 C 294.678 449.406, 310.965 446.625, 313.644 445.191 C 314.779 444.583, 320.137 442.667, 325.550 440.933 C 341.084 435.957, 358.289 428.284, 365.696 423.027 C 379.103 413.513, 394.793 394.389, 402.637 378 C 405.138 372.775, 408.672 365.575, 410.489 362 C 416.664 349.855, 421.730 333.174, 424.004 317.500 C 424.642 313.100, 426.017 304.100, 427.058 297.500 C 429.294 283.330, 429.940 262.070, 428.404 253.184 C 426.882 244.374, 424.806 242.495, 416.616 242.517 C 411.589 242.530, 409.096 243.146, 404.460 245.517 C 398.063 248.789, 398.452 248.195, 381.859 279.999 C 374.861 293.412, 373.608 295, 370.023 295 C 365.865 295, 358.657 292.198, 355.136 289.213 C 350.640 285.402, 350.013 280.126, 350.006 246.066 C 350 219.910, 348.607 189.295, 345.931 156.500 C 343.916 131.819, 343.662 130.586, 339.467 125.086 C 335.058 119.303, 331.573 117.571, 324.345 117.571 C 319.706 117.571, 318.513 118.058, 313.391 122.036 C 309.581 124.994, 306.801 128.186, 305.148 131.500 C 302.710 136.387, 302.658 136.963, 302.842 157 C 302.946 168.275, 302.566 188.750, 301.998 202.500 L 300.964 227.500 297.966 230.250 C 296.318 231.762, 294.136 233, 293.119 233 C 290.298 233, 286.554 229.575, 284.727 225.323 C 282.898 221.065, 278.621 196.903, 270.953 147.500 C 264.550 106.251, 262.020 97.539, 253.614 87.779 C 248.058 81.329, 242.583 79.737, 233.500 81.929 M 0.407 266 C 0.407 275.075, 0.559 278.788, 0.744 274.250 C 0.929 269.712, 0.929 262.288, 0.744 257.750 C 0.559 253.213, 0.407 256.925, 0.407 266" stroke="none" fill="#a4d48c" fill-rule="evenodd"/><path d="M 261.280 0.736 C 263.909 0.943, 267.959 0.940, 270.280 0.731 C 272.601 0.521, 270.450 0.352, 265.500 0.355 C 260.550 0.358, 258.651 0.530, 261.280 0.736 M 233.500 81.929 C 228.382 83.164, 226.163 84.866, 223.281 89.768 C 220.744 94.085, 220.469 95.536, 220.143 106.316 C 219.630 123.268, 221.186 136.129, 229.562 184.144 C 238.235 233.871, 239.024 244.263, 234.399 247.901 C 230.909 250.646, 225.221 251.682, 223.554 249.878 C 222.854 249.120, 219.941 239.605, 217.082 228.733 C 214.222 217.860, 207.898 197.610, 203.029 183.733 C 198.160 169.855, 192.736 153.618, 190.975 147.652 C 187.115 134.569, 180.109 122.029, 173.850 117 C 169.973 113.884, 168.970 113.555, 163.710 113.676 C 156.214 113.849, 152.747 115.334, 149.288 119.855 C 146.773 123.143, 146.500 124.284, 146.500 131.500 C 146.500 141.391, 149.137 155.740, 153.048 167.136 C 154.678 171.885, 159.183 188.760, 163.059 204.636 C 166.935 220.511, 171.691 238.593, 173.629 244.817 C 176.409 253.745, 177.009 257.018, 176.471 260.317 C 175.185 268.205, 170.410 270.622, 162.070 267.608 C 159.092 266.532, 158.191 265.325, 155.222 258.434 C 153.342 254.071, 148.485 241.358, 144.429 230.185 C 135.750 206.278, 132.881 200.612, 127.731 197.203 C 122.353 193.644, 114.664 192.548, 109.261 194.570 C 102.698 197.027, 101 199.905, 101 208.570 C 101 212.585, 101.488 217.137, 102.085 218.685 C 102.682 220.233, 108.504 240.850, 115.022 264.500 C 132.303 327.198, 145.235 361.912, 159.613 384.204 C 172.445 404.098, 183.979 417.459, 196 426.352 C 224.330 447.312, 248.167 454.345, 279.569 451.011 C 294.678 449.406, 310.965 446.625, 313.644 445.191 C 314.779 444.583, 320.137 442.667, 325.550 440.933 C 341.084 435.957, 358.289 428.284, 365.696 423.027 C 379.103 413.513, 394.793 394.389, 402.637 378 C 405.138 372.775, 408.672 365.575, 410.489 362 C 416.664 349.855, 421.730 333.174, 424.004 317.500 C 424.642 313.100, 426.017 304.100, 427.058 297.500 C 429.294 283.330, 429.940 262.070, 428.404 253.184 C 426.882 244.374, 424.806 242.495, 416.616 242.517 C 411.589 242.530, 409.096 243.146, 404.460 245.517 C 398.063 248.789, 398.452 248.195, 381.859 279.999 C 374.861 293.412, 373.608 295, 370.023 295 C 365.865 295, 358.657 292.198, 355.136 289.213 C 350.640 285.402, 350.013 280.126, 350.006 246.066 C 350 219.910, 348.607 189.295, 345.931 156.500 C 343.916 131.819, 343.662 130.586, 339.467 125.086 C 335.058 119.303, 331.573 117.571, 324.345 117.571 C 319.706 117.571, 318.513 118.058, 313.391 122.036 C 309.581 124.994, 306.801 128.186, 305.148 131.500 C 302.710 136.387, 302.658 136.963, 302.842 157 C 302.946 168.275, 302.566 188.750, 301.998 202.500 L 300.964 227.500 297.966 230.250 C 296.318 231.762, 294.136 233, 293.119 233 C 290.298 233, 286.554 229.575, 284.727 225.323 C 282.898 221.065, 278.621 196.903, 270.953 147.500 C 264.550 106.251, 262.020 97.539, 253.614 87.779 C 248.058 81.329, 242.583 79.737, 233.500 81.929 M 530 246.382 C 530 247.207, 530.450 248.160, 531 248.500 C 531.550 248.840, 532 248.443, 532 247.618 C 532 246.793, 531.550 245.840, 531 245.500 C 530.450 245.160, 530 245.557, 530 246.382 M 252.250 531.689 C 253.213 531.941, 254.787 531.941, 255.750 531.689 C 256.712 531.438, 255.925 531.232, 254 531.232 C 252.075 531.232, 251.287 531.438, 252.250 531.689 M 275.250 531.689 C 276.212 531.941, 277.788 531.941, 278.750 531.689 C 279.712 531.438, 278.925 531.232, 277 531.232 C 275.075 531.232, 274.288 531.438, 275.250 531.689" stroke="none" fill="#f3f3f3" fill-rule="evenodd"/></svg>